{
  "title": "Insurgent 2015 HQ-CAM XViD AC3 MURD3R",
  "uid": 11788004,
  "size": 1860773347,
  "categoryP": "video",
  "categoryS": "movies",
  "magnet": "?xt=urn:btih:0162f35cce95a8febbaae80970191b09382f0530&amp;dn=Insurgent+2015+HQ-CAM+XViD+AC3+MURD3R&amp;tr=udp%3A%2F%2Ftracker.openbittorrent.com%3A80&amp;tr=udp%3A%2F%2Fopen.demonii.com%3A1337&amp;tr=udp%3A%2F%2Ftracker.coppersurfer.tk%3A6969&amp;tr=udp%3A%2F%2Fexodus.desync.com%3A6969",
  "seeders": 124,
  "leechers": 38,
  "uploader": "makintos13",
  "files": 9,
  "time": 1427824542,
  "description": "screens:\n &lt;a href=&quot;\nhttp://imgmak.com/image/w&quot; rel=&quot;nofollow&quot; target=&quot;_NEW&quot;&gt;\nhttp://imgmak.com/image/w&lt;/a&gt;\n &lt;a href=&quot;\nhttp://imgmak.com/image/J&quot; rel=&quot;nofollow&quot; target=&quot;_NEW&quot;&gt;\nhttp://imgmak.com/image/J&lt;/a&gt;\n &lt;a href=&quot;\nhttp://imgmak.com/image/W&quot; rel=&quot;nofollow&quot; target=&quot;_NEW&quot;&gt;\nhttp://imgmak.com/image/W&lt;/a&gt;\n\nCover:\n &lt;a href=&quot;\nhttp://imgmak.com/image/d&quot; rel=&quot;nofollow&quot; target=&quot;_NEW&quot;&gt;\nhttp://imgmak.com/image/d&lt;/a&gt;\n\n\nINFO:\n\nInsurgent 2015 HQCAM XViD AC3 MURD3R.avi\n\nFormat                      : AVI\nFormat/Info                 : Audio Video Interleave\nFile size                   : 1.73 GiB\nDuration                    : 1h 47mn\nOverall bit rate            : 2 299 Kbps\n\nVideo\nID                          : 0\nFormat                      : xvid\nCodec ID                    : xvid\nDuration                    : 1h 47mn\nBit rate                    : 2 128 Kbps\nWidth                       : 720 pixels\nHeight                      : 352 pixels\nDisplay aspect ratio        : 2.045\nFrame rate                  : 25.000 fps\nBits/(Pixel*Frame)          : 0.336\nStream size                 : 1.60 GiB (93%)\n\nAudio\nID                          : 1\nFormat                      : AC-3\nFormat/Info                 : Audio Coding 3\nMode extension              : CM (complete main)\nFormat settings, Endianness : Big\nCodec ID                    : 2000\nDuration                    : 1h 47mn\nBit rate mode               : Constant\nBit rate                    : 160 Kbps\nChannel(s)                  : 2 channels\nChannel positions           : Front: L R\nSampling rate               : 44.1 KHz\nBit depth                   : 16 bits\nCompression mode            : Lossy\nStream size                 : 123 MiB (7%)\nAlignment                   : Aligned on interleaves\nInterleave, duration        : 35 ms (0.87 video frame)",
  "parsed": {
    "xt": "urn:btih:0162f35cce95a8febbaae80970191b09382f0530",
    "dn": "Insurgent 2015 HQ-CAM XViD AC3 MURD3R",
    "tr": [
      "udp://exodus.desync.com:6969",
      "udp://open.demonii.com:1337",
      "udp://tracker.coppersurfer.tk:6969",
      "udp://tracker.openbittorrent.com:80"
    ],
    "infoHash": "0162f35cce95a8febbaae80970191b09382f0530",
    "infoHashBuffer": {
      "type": "Buffer",
      "data": [
        1,
        98,
        243,
        92,
        206,
        149,
        168,
        254,
        187,
        170,
        232,
        9,
        112,
        25,
        27,
        9,
        56,
        47,
        5,
        48
      ]
    },
    "name": "Insurgent 2015 HQ-CAM XViD AC3 MURD3R",
    "announce": [
      "udp://exodus.desync.com:6969",
      "udp://open.demonii.com:1337",
      "udp://tracker.coppersurfer.tk:6969",
      "udp://tracker.openbittorrent.com:80"
    ],
    "urlList": []
  },
  "previous": 162,
  "peers": 7,
  "last_updated": "2016-12-24T15:26:52.203Z"
}